<svg width="25" height="28" viewBox="0 0 25 28" fill="none" xmlns="http://www.w3.org/2000/svg">
<path fill-rule="evenodd" clip-rule="evenodd" d="M16.4 2.73333V1.36666C16.4 0.612265 17.0122 0 17.7666 0C18.521 0 19.1333 0.612265 19.1333 1.36666V2.73333C22.1536 2.73333 24.5999 5.18102 24.5999 8.19998V21.8666C24.5999 24.8856 22.1536 27.3333 19.1333 27.3333C15.226 27.3333 9.3753 27.3333 5.46665 27.3333C2.44769 27.3333 0 24.8856 0 21.8666V8.19998C0 5.18102 2.44769 2.73333 5.46665 2.73333V1.36666C5.46665 0.612265 6.07891 0 6.83331 0C7.58771 0 8.19998 0.612265 8.19998 1.36666V2.73333H16.4ZM21.8666 13.6666H2.73333V21.8666C2.73333 23.3754 3.95785 24.5999 5.46665 24.5999H19.1333C20.6434 24.5999 21.8666 23.3754 21.8666 21.8666V13.6666ZM14.8871 18.6618L16.814 16.7867C17.3552 16.2606 18.2203 16.2729 18.7465 16.8141C19.2727 17.3539 19.2604 18.2203 18.7205 18.7465L15.9107 21.4798C15.4078 21.9677 14.6192 21.9978 14.0821 21.5495L12.5432 20.2649C11.9638 19.7824 11.8859 18.9201 12.3697 18.3406C12.8521 17.7611 13.7145 17.6832 14.2939 18.167L14.8871 18.6618ZM19.1333 5.46665V6.83331C19.1333 7.58771 18.521 8.19998 17.7666 8.19998C17.0122 8.19998 16.4 7.58771 16.4 6.83331V5.46665H8.19998V6.83331C8.19998 7.58771 7.58771 8.19998 6.83331 8.19998C6.07891 8.19998 5.46665 7.58771 5.46665 6.83331V5.46665C3.95785 5.46665 2.73333 6.68981 2.73333 8.19998V10.9333H21.8666V8.19998C21.8666 6.68981 20.6434 5.46665 19.1333 5.46665Z" fill="#F4A301"/>
</svg>
