<svg width="235" height="235" viewBox="0 0 235 235" fill="none" xmlns="http://www.w3.org/2000/svg">
<path d="M195.836 205.625H39.168C31.0569 205.625 24.4805 199.049 24.4805 190.938V107.709H34.2733V190.938C34.2733 193.641 36.4643 195.834 39.168 195.834H195.836C198.54 195.834 200.73 193.641 200.73 190.938V156.666H210.523V190.938C210.523 199.049 203.947 205.625 195.836 205.625Z" fill="#4F7F35"/>
<path d="M73.4375 225.209H161.562V235H73.4375V225.209Z" fill="#4F7F35"/>
<path d="M83.2305 205.625H93.0233V230.104H83.2305V205.625Z" fill="#4F7F35"/>
<path d="M141.98 200.729H151.773V230.104H141.98V200.729Z" fill="#4F7F35"/>
<path d="M29.375 166.459H73.4375V176.25H29.375V166.459Z" fill="#4F7F35"/>
<path d="M88.125 176.25C85.4213 176.25 83.2286 174.057 83.2286 171.354V146.875H73.4375C65.3264 146.875 58.75 140.299 58.75 132.188V14.6875C58.75 6.57639 65.3264 0 73.4375 0H220.312C228.424 0 235 6.57639 235 14.6875V132.188C235 140.299 228.424 146.875 220.312 146.875H119.526L91.5871 174.816C90.6691 175.734 89.4231 176.25 88.125 176.25ZM73.4375 9.79107C70.7338 9.79107 68.5411 11.9838 68.5411 14.6875V132.188C68.5411 134.891 70.7338 137.084 73.4375 137.084H88.125C90.8287 137.084 93.0214 139.275 93.0214 141.979V159.537L114.038 138.518C114.956 137.6 116.202 137.084 117.5 137.084H220.312C223.016 137.084 225.209 134.891 225.209 132.188V14.6875C225.209 11.9838 223.016 9.79107 220.312 9.79107H73.4375Z" fill="#4F7F35"/>
<path d="M117.502 93.0214H107.711V83.2286H93.0231C91.1405 83.2304 89.4229 82.151 88.6071 80.4549C87.7931 78.7571 88.0226 76.7436 89.1988 75.2734L108.783 50.7949C110.081 49.1705 112.265 48.543 114.228 49.2314C116.189 49.9217 117.503 51.7738 117.502 53.8536V73.4375H122.398V83.2286H117.502V93.0214ZM103.21 73.4375H107.711V67.8114L103.21 73.4375Z" fill="#4F7F35"/>
<path d="M195.835 93.0214H186.042V83.2286H171.355C169.472 83.2304 167.756 82.151 166.94 80.4549C166.125 78.7571 166.354 76.7436 167.532 75.2734L187.114 50.7949C188.414 49.1705 190.598 48.543 192.559 49.2314C194.523 49.9217 195.835 51.7738 195.835 53.8536V73.4375H200.73V83.2286H195.835V93.0214ZM181.544 73.4375H186.042V67.8114L181.544 73.4375Z" fill="#4F7F35"/>
<path d="M146.877 93.0214H141.98C133.869 93.0214 127.293 86.445 127.293 78.3339V63.6464C127.293 55.5335 133.869 48.9589 141.98 48.9589H146.877C154.988 48.9589 161.564 55.5335 161.564 63.6464V78.3339C161.564 86.445 154.988 93.0214 146.877 93.0214ZM141.98 58.75C139.277 58.75 137.086 60.9427 137.086 63.6464V78.3339C137.086 81.0376 139.277 83.2286 141.98 83.2286H146.877C149.581 83.2286 151.773 81.0376 151.773 78.3339V63.6464C151.773 60.9427 149.581 58.75 146.877 58.75H141.98Z" fill="#4F7F35"/>
<path d="M88.1231 44.0625H78.332V34.2714C78.332 26.1585 84.9066 19.5839 93.0195 19.5839H102.811V29.375H93.0195C90.3158 29.375 88.1231 31.5677 88.1231 34.2714V44.0625Z" fill="#4F7F35"/>
<path d="M112.605 19.5839H122.398V29.375H112.605V19.5839Z" fill="#4F7F35"/>
<path d="M200.729 127.291H190.938V117.5H200.729C203.432 117.5 205.625 115.307 205.625 112.604V102.812H215.416V112.604C215.416 120.716 208.841 127.291 200.729 127.291V127.291Z" fill="#4F7F35"/>
<path d="M171.355 117.5H181.148V127.291H171.355V117.5Z" fill="#4F7F35"/>
<path d="M107.707 166.459H205.623V176.25H107.707V166.459Z" fill="#4F7F35"/>
<path d="M44.0625 107.709C42.7644 107.709 41.5184 107.193 40.6004 106.275L22.4526 88.125H14.6875C6.57639 88.125 0 81.5486 0 73.4375V44.0625C0 35.9514 6.57639 29.375 14.6875 29.375H48.9589V39.1661H14.6875C11.9838 39.1661 9.79107 41.3588 9.79107 44.0625V73.4375C9.79107 76.1412 11.9838 78.3339 14.6875 78.3339H24.4786C25.7766 78.3339 27.0227 78.8503 27.9407 79.7683L39.1661 90.9937V83.2286C39.1661 80.5249 41.3588 78.3339 44.0625 78.3339H48.9589V102.812C48.9589 105.516 46.7662 107.709 44.0625 107.709Z" fill="#4F7F35"/>
<path d="M19.582 53.8536H48.957V63.6464H19.582V53.8536Z" fill="#4F7F35"/>
</svg>
