<svg width="24" height="24" viewBox="0 0 24 24" fill="none" xmlns="http://www.w3.org/2000/svg">
<g clip-path="url(#clip0_1157:13381)">
<path d="M23.7235 11.9155C23.5406 12.0971 23.3017 12.1879 23.0627 12.1879C22.8218 12.1879 22.5809 12.0956 22.3977 11.9112L22.1253 11.637V15.5628C22.1253 16.0806 21.7056 16.5003 21.1878 16.5003C20.67 16.5003 20.2503 16.0806 20.2503 15.5628C20.2503 15.5628 20.2521 9.78388 20.2549 9.75425L12.6518 2.10102C12.3019 1.80127 11.7868 1.80019 11.4356 2.09844L3.75085 9.76803V20.2502C3.75085 21.284 4.59195 22.1251 5.62579 22.1251H8.53195V16.7815C8.53195 14.8431 10.109 13.266 12.0475 13.266C13.9859 13.266 15.563 14.8431 15.563 16.7815V22.1251H18.3754C19.4092 22.1251 20.2503 21.284 20.2503 20.2502C20.2503 19.7324 20.67 19.3127 21.1878 19.3127C21.7056 19.3127 22.1253 19.7324 22.1253 20.2502C22.1253 22.3179 20.4431 24.0001 18.3754 24.0001H14.6255C14.1077 24.0001 13.688 23.5803 13.688 23.0626V16.7815C13.688 15.8769 12.9521 15.141 12.0475 15.141C11.1429 15.141 10.4069 15.8769 10.4069 16.7815V23.0626C10.4069 23.5803 9.98719 24.0001 9.46942 24.0001H5.62579C3.55811 24.0001 1.87591 22.3179 1.87591 20.2502V11.6393L1.60067 11.914C1.23426 12.2797 0.640701 12.2791 0.2749 11.9127C-0.0908541 11.5462 -0.0902447 10.9527 0.276213 10.5869C0.276213 10.5869 10.1587 0.724487 10.1721 0.712628C11.2427 -0.240545 12.8545 -0.237123 13.9211 0.72055C13.9343 0.732456 23.7278 10.5897 23.7278 10.5897C24.0927 10.957 24.0908 11.5506 23.7235 11.9155ZM9.75067 9.09422C9.2329 9.09422 8.8132 9.51393 8.8132 10.0317C8.8132 10.5495 9.2329 10.9692 9.75067 10.9692H14.3911C14.9089 10.9692 15.3286 10.5495 15.3286 10.0317C15.3286 9.51393 14.9089 9.09422 14.3911 9.09422H9.75067Z" fill="#4F7F35"/>
</g>
<defs>
<clipPath id="clip0_1157:13381">
<rect width="24" height="24" fill="white"/>
</clipPath>
</defs>
</svg>
