<svg width="130" height="130" viewBox="0 0 130 130" fill="none" xmlns="http://www.w3.org/2000/svg">
<g clip-path="url(#clip0_1164:12188)">
<path d="M126.534 42.0258L87.9739 3.46594C83.352 -1.15598 75.8334 -1.15598 71.2123 3.46594L3.46604 71.2113C-1.15535 75.8333 -1.15535 83.3519 3.46604 87.9732L42.0259 126.534C46.6478 131.155 54.1666 131.155 58.7877 126.534L126.533 58.7879C131.155 54.166 131.155 46.6471 126.534 42.0258ZM49.1333 121.854C48.5808 121.665 48.0542 121.387 47.6128 120.946L9.05298 82.3866C9.04254 82.3756 9.04013 82.3619 9.02889 82.351L49.133 82.3507V121.854H49.1333ZM11.4038 74.4488L74.4502 11.4021L74.4508 72.7257C74.4502 73.6476 73.6482 74.4501 72.726 74.4501L11.4038 74.4488ZM57.0338 117.113V82.351H72.7266C75.2988 82.351 77.7163 81.3495 79.5331 79.5327C81.3502 77.7157 82.3511 75.2987 82.3513 72.7259V57.0335L117.112 57.0348L57.0338 117.113ZM82.3511 49.1326V9.02852C82.3618 9.03949 82.376 9.0419 82.3869 9.05288L120.947 47.6127C121.387 48.0536 121.666 48.5798 121.854 49.134L82.3511 49.1326Z" fill="#4F7F35"/>
<path d="M3.84964 16.7493H44.3119C46.4376 16.7493 48.1616 15.0259 48.1616 12.8999C48.1616 10.7739 46.4379 9.05029 44.3119 9.05029H3.84964C1.72338 9.05029 0 10.7737 0 12.8999C0 15.0259 1.72338 16.7493 3.84964 16.7493Z" fill="#4F7F35"/>
<path d="M3.84964 31.8724H29.2223C31.3483 31.8724 33.0717 30.149 33.0717 28.0228C33.0717 25.897 31.3483 24.1734 29.2223 24.1734H3.84964C1.72338 24.1734 0 25.8968 0 28.0228C0 30.149 1.72338 31.8724 3.84964 31.8724Z" fill="#4F7F35"/>
<path d="M3.84964 46.5375H20.2314C22.3571 46.5375 24.081 44.8141 24.081 42.6878C24.081 40.5616 22.3574 38.8382 20.2314 38.8382H3.84964C1.72338 38.8382 0 40.5618 0 42.6878C0 44.8138 1.72338 46.5375 3.84964 46.5375Z" fill="#4F7F35"/>
<path d="M20.2314 117.322H3.84964C1.72338 117.322 0 119.046 0 121.172C0 123.298 1.72338 125.022 3.84964 125.022H20.2314C22.3571 125.022 24.081 123.298 24.081 121.172C24.081 119.046 22.3574 117.322 20.2314 117.322Z" fill="#4F7F35"/>
</g>
<defs>
<clipPath id="clip0_1164:12188">
<rect width="130" height="130" fill="white"/>
</clipPath>
</defs>
</svg>
