<svg width="24" height="24" viewBox="0 0 24 24" fill="none" xmlns="http://www.w3.org/2000/svg">
<path d="M20.1548 10.2309C19.94 10.0263 19.6546 9.91223 19.3579 9.91233C19.0611 9.91243 18.7758 10.0267 18.5611 10.2315L17.2374 11.5583L12.467 6.78434L13.791 5.46012C14.002 5.24872 14.1205 4.96227 14.1205 4.66362C14.1205 4.36497 14.002 4.07851 13.791 3.86712L10.3382 0.414277C10.1255 0.207506 9.84027 0.0923746 9.54365 0.0936072C9.24703 0.0948398 8.96273 0.212338 8.75178 0.42087C6.15559 2.55108 5.77672 6.49077 8.21181 8.89518L9.00155 9.68493H1.57202C1.17434 9.68538 0.793069 9.84356 0.511863 10.1248C0.230657 10.406 0.0724761 10.7872 0.0720215 11.1849V19.8099C0.0724761 20.2076 0.230657 20.5889 0.511863 20.8701C0.793069 21.1513 1.17434 21.3095 1.57202 21.3099H9.07642L10.6533 23.3721C10.8086 23.5764 11.0188 23.7322 11.2595 23.8212C11.5001 23.9102 11.7612 23.9288 12.012 23.8748C12.2629 23.8208 12.4931 23.6963 12.6757 23.5161C12.8584 23.3359 12.9858 23.1073 13.0432 22.8572L13.3973 21.3099H14.7008C15.0968 21.3081 15.476 21.1506 15.7567 20.8714C16.0374 20.5922 16.197 20.2137 16.2008 19.8178L16.2184 16.6534C17.0873 17.174 18.081 17.4496 19.0939 17.4508C20.7908 17.4924 22.4492 16.6 23.601 15.2702C23.8103 15.0579 23.9276 14.7718 23.9276 14.4737C23.9276 14.1756 23.8103 13.8895 23.601 13.6772L20.1548 10.2309ZM12.7995 19.8099C12.6297 19.8099 12.4649 19.8676 12.332 19.9734C12.1992 20.0792 12.1063 20.227 12.0684 20.3926L11.6525 22.2095L10.0428 20.1044C9.97285 20.0128 9.88267 19.9386 9.77934 19.8875C9.676 19.8365 9.56228 19.8099 9.44702 19.8099H1.57202V11.1849H10.5015L14.7253 15.4087L14.7009 19.8099L12.7995 19.8099ZM22.0005 14.7496C21.2284 15.5181 20.1833 15.9496 19.0939 15.9496C18.0045 15.9496 16.9594 15.5181 16.1873 14.7496L9.27234 7.83463C8.87044 7.42717 8.55709 6.94105 8.35193 6.40677C8.14678 5.87249 8.05425 5.30158 8.08016 4.72985C8.10607 4.15812 8.24986 3.59792 8.50249 3.08438C8.75513 2.57085 9.11117 2.11506 9.54828 1.74563L12.4664 4.6636L11.1475 5.98269C11.0416 6.08662 10.9573 6.21052 10.8995 6.34724C10.8417 6.48395 10.8117 6.63076 10.811 6.77918C10.8103 6.92759 10.8391 7.07467 10.8956 7.21189C10.9522 7.34912 11.0354 7.47377 11.1404 7.57864L16.4427 12.885L16.4431 12.8856C16.6543 13.0959 16.9402 13.2139 17.2383 13.2138C17.5363 13.2136 17.8221 13.0953 18.033 12.8847L19.3587 11.5559L22.2765 14.4737L22.0005 14.7496Z" fill="white"/>
</svg>
