<svg width="24" height="24" viewBox="0 0 24 24" fill="none" xmlns="http://www.w3.org/2000/svg">
<path d="M20.1551 10.2309C19.9402 10.0263 19.6548 9.91223 19.3581 9.91233C19.0614 9.91243 18.7761 10.0267 18.5613 10.2315L17.2377 11.5583L12.4672 6.78434L13.7913 5.46012C14.0022 5.24872 14.1207 4.96227 14.1207 4.66362C14.1207 4.36497 14.0022 4.07851 13.7913 3.86712L10.3385 0.414277C10.1258 0.207506 9.84051 0.0923746 9.54389 0.0936072C9.24728 0.0948398 8.96297 0.212338 8.75203 0.42087C6.15583 2.55108 5.77696 6.49077 8.21205 8.89518L9.0018 9.68493H1.57227C1.17458 9.68538 0.793314 9.84356 0.512107 10.1248C0.230901 10.406 0.0727202 10.7872 0.0722656 11.1849V19.8099C0.0727202 20.2076 0.230901 20.5889 0.512107 20.8701C0.793314 21.1513 1.17458 21.3095 1.57227 21.3099H9.07666L10.6536 23.3721C10.8088 23.5764 11.0191 23.7322 11.2597 23.8212C11.5004 23.9102 11.7614 23.9288 12.0123 23.8748C12.2631 23.8208 12.4933 23.6963 12.676 23.5161C12.8586 23.3359 12.9861 23.1073 13.0434 22.8572L13.3976 21.3099H14.7011C15.097 21.3081 15.4763 21.1506 15.757 20.8714C16.0377 20.5922 16.1972 20.2137 16.2011 19.8178L16.2187 16.6534C17.0876 17.174 18.0812 17.4496 19.0942 17.4508C20.7911 17.4924 22.4495 16.6 23.6013 15.2702C23.8106 15.0579 23.9279 14.7718 23.9279 14.4737C23.9279 14.1756 23.8106 13.8895 23.6013 13.6772L20.1551 10.2309ZM12.7997 19.8099C12.6299 19.8099 12.4651 19.8676 12.3323 19.9734C12.1995 20.0792 12.1065 20.227 12.0686 20.3926L11.6528 22.2095L10.0431 20.1044C9.97309 20.0128 9.88292 19.9386 9.77958 19.8875C9.67625 19.8365 9.56253 19.8099 9.44726 19.8099H1.57227V11.1849H10.5018L14.7256 15.4087L14.7011 19.8099L12.7997 19.8099ZM22.0008 14.7496C21.2287 15.5181 20.1836 15.9496 19.0942 15.9496C18.0048 15.9496 16.9597 15.5181 16.1875 14.7496L9.27258 7.83463C8.87068 7.42717 8.55733 6.94105 8.35218 6.40677C8.14702 5.87249 8.0545 5.30158 8.08041 4.72985C8.10632 4.15812 8.2501 3.59792 8.50274 3.08438C8.75538 2.57085 9.11142 2.11506 9.54852 1.74563L12.4667 4.6636L11.1478 5.98269C11.0418 6.08662 10.9575 6.21052 10.8998 6.34724C10.842 6.48395 10.8119 6.63076 10.8112 6.77918C10.8106 6.92759 10.8394 7.07467 10.8959 7.21189C10.9524 7.34912 11.0356 7.47377 11.1406 7.57864L16.443 12.885L16.4434 12.8856C16.6545 13.0959 16.9405 13.2139 17.2385 13.2138C17.5365 13.2136 17.8224 13.0953 18.0333 12.8847L19.359 11.5559L22.2767 14.4737L22.0008 14.7496Z" fill="white"/>
</svg>
