<svg width="16" height="11" viewBox="0 0 16 11" fill="none" xmlns="http://www.w3.org/2000/svg">
<path fill-rule="evenodd" clip-rule="evenodd" d="M8.72907 0.45359C9.17475 -0.0812238 9.9696 -0.153482 10.5044 0.292195L15.5465 4.49396C15.8339 4.73345 16.0001 5.08822 16.0001 5.46232C16.0001 5.83642 15.8339 6.1912 15.5465 6.43069L10.5044 10.6325C9.9696 11.0781 9.17475 11.0059 8.72907 10.4711C8.2834 9.93625 8.35566 9.1414 8.89047 8.69572L12.0983 6.72285L1.26053 6.72284C0.564358 6.72284 0 6.15848 0 5.46231C0 4.76614 0.564358 4.20178 1.26053 4.20178L12.0983 4.2018L8.89047 2.22893C8.35566 1.78325 8.2834 0.988403 8.72907 0.45359Z" fill="#F4A301"/>
</svg>
