<svg width="238" height="61" viewBox="0 0 238 61" fill="none" xmlns="http://www.w3.org/2000/svg">
<path d="M33.6086 10.2257C35.2707 8.78998 37.3937 8 39.5899 8L100.705 8C105.758 8 109.855 12.0966 109.855 17.15C109.855 22.2034 105.758 26.3 100.705 26.3H39.5899C31.1124 26.3 27.1932 15.7674 33.6086 10.2257Z" fill="#F4A301"/>
<path d="M65.2884 4.83791C68.917 1.71654 73.5447 0 78.3311 0L297.505 0C308.551 0 317.505 8.95431 317.505 20V41C317.505 52.0457 308.551 61 297.505 61H53.9186C35.368 61 26.8126 37.9354 40.8759 25.8379L65.2884 4.83791Z" fill="#E83747"/>
<path d="M65.2884 4.83791C68.917 1.71654 73.5447 0 78.3311 0H169.502C192.808 0 197.28 33.0969 174.811 39.2827L98.5282 60.2827C96.7989 60.7587 95.0135 61 93.2198 61H53.9186C35.3679 61 26.8126 37.9354 40.8759 25.8379L65.2884 4.83791Z" fill="url(#paint0_linear_1157:13307)" fill-opacity="0.1"/>
<defs>
<linearGradient id="paint0_linear_1157:13307" x1="132.98" y1="43.92" x2="110.868" y2="-38.2775" gradientUnits="userSpaceOnUse">
<stop stop-opacity="0.5"/>
<stop offset="1" stop-color="#E83747" stop-opacity="0"/>
</linearGradient>
</defs>
</svg>
