<svg width="85" height="85" viewBox="0 0 85 85" fill="none" xmlns="http://www.w3.org/2000/svg">
<g clip-path="url(#clip0_1098:35386)">
<path d="M84.9782 41.1138C84.2651 18.785 66.2159 0.736343 43.8876 0.0232758C31.738 -0.362198 20.3713 4.2623 11.9708 12.9355C3.89497 21.2733 -0.348223 32.2653 0.0229295 43.888C0.7354 66.2162 18.7847 84.2655 41.1129 84.9779C41.5777 84.9929 42.0384 85 42.5002 85C54.1086 85 64.9508 80.4065 73.0297 72.0657C81.1055 63.7285 85.3493 52.736 84.9782 41.1138ZM66.6007 65.8391C60.2231 72.4238 51.6639 76.05 42.5002 76.05C42.1339 76.05 41.7675 76.044 41.3981 76.0327C23.7761 75.47 9.53149 61.2253 8.96819 43.6027C8.67521 34.4241 12.0245 25.7444 18.3998 19.1627C24.7774 12.578 33.3366 8.95183 42.5002 8.95183C42.8666 8.95183 43.233 8.9578 43.6024 8.96914C61.2244 9.53183 75.469 23.7765 76.0323 41.3991C76.3253 50.5777 72.9754 59.2574 66.6007 65.8391Z" fill="white"/>
<path d="M56.44 40.031L37.5935 26.518C35.5832 25.0763 32.7847 26.5132 32.7847 28.9871V56.0139C32.7847 58.4878 35.5832 59.9247 37.5935 58.4831L56.4394 44.9694C58.1305 43.7575 58.1305 41.2435 56.44 40.031Z" fill="white"/>
</g>
<defs>
<clipPath id="clip0_1098:35386">
<rect width="85" height="85" fill="white"/>
</clipPath>
</defs>
</svg>
