<svg width="16" height="11" viewBox="0 0 16 11" fill="none" xmlns="http://www.w3.org/2000/svg">
<path fill-rule="evenodd" clip-rule="evenodd" d="M7.27093 0.45359C6.82525 -0.0812238 6.0304 -0.153482 5.49559 0.292195L0.453471 4.49396C0.16608 4.73345 -8.74371e-05 5.08822 -8.74371e-05 5.46232C-8.74371e-05 5.83642 0.16608 6.1912 0.453471 6.43069L5.49559 10.6325C6.0304 11.0781 6.82525 11.0059 7.27093 10.4711C7.7166 9.93625 7.64434 9.1414 7.10953 8.69572L3.90173 6.72285L14.7395 6.72284C15.4356 6.72284 16 6.15848 16 5.46231C16 4.76614 15.4356 4.20178 14.7395 4.20178L3.90173 4.2018L7.10953 2.22893C7.64434 1.78325 7.7166 0.988403 7.27093 0.45359Z" fill="#F4A301"/>
</svg>
