<svg width="18" height="20" viewBox="0 0 18 20" fill="none" xmlns="http://www.w3.org/2000/svg">
<path d="M3.01696 20.0428L3.01759 20.0434C3.69018 20.6818 4.55351 21 5.41358 21C6.33336 21 7.25114 20.6361 7.93457 19.9198L7.93583 19.9184L15.1084 12.3735L15.1089 12.3729C16.3862 11.0273 16.3842 8.91434 15.1006 7.57218L15.1005 7.57208L7.92762 0.0740874C7.92761 0.0740695 7.92759 0.0740516 7.92757 0.0740336C6.59977 -1.31409 4.39835 -1.36348 3.00963 -0.0351313L3.00947 -0.0349796C1.62162 1.29311 1.57238 3.49487 2.9004 4.88284C2.90045 4.8829 2.9005 4.88296 2.90056 4.88301L7.78013 9.98465L2.8927 15.1249L2.89243 15.1252C1.56966 16.5175 1.62498 18.7191 3.01696 20.0428Z" fill="#F4A302" stroke="white" stroke-width="2"/>
</svg>
